<svg xmlns="http://www.w3.org/2000/svg" viewBox="0 0 220 220" role="img" aria-labelledby="title desc">
  <title id="title">Fish Tracker logo</title>
  <desc id="desc">A fishing rod and fish icon for Fish Tracker</desc>
  <defs>
    <linearGradient id="water" x1="0" x2="1" y1="0" y2="1">
      <stop offset="0%" stop-color="#38bdf8"/>
      <stop offset="100%" stop-color="#0f766e"/>
    </linearGradient>
    <linearGradient id="sun" x1="0" x2="1">
      <stop offset="0%" stop-color="#fbbf24"/>
      <stop offset="100%" stop-color="#f59e0b"/>
    </linearGradient>
  </defs>

  <rect width="220" height="220" rx="42" fill="#f8fafc"/>
  <circle cx="172" cy="50" r="22" fill="url(#sun)"/>

  <path d="M38 170 L100 92" stroke="#1e293b" stroke-width="8" stroke-linecap="round"/>
  <path d="M100 92 L146 58" stroke="#1e293b" stroke-width="8" stroke-linecap="round"/>
  <path d="M146 58 L179 35" stroke="#1e293b" stroke-width="6" stroke-linecap="round"/>
  <path d="M35 168 C80 140, 100 122, 118 109" fill="none" stroke="#94a3b8" stroke-width="5" stroke-linecap="round"/>
  <circle cx="142" cy="56" r="12" fill="#f8fafc" stroke="#1e293b" stroke-width="4"/>
  <path d="M142 36 L151 56 L142 78 L133 56 Z" fill="#f97316"/>

  <path d="M66 152 C86 138, 104 136, 124 144 C111 157, 96 164, 66 152 Z" fill="url(#water)"/>
  <path d="M84 148 C92 133, 104 127, 118 133" fill="none" stroke="#dbeafe" stroke-width="4" stroke-linecap="round"/>
  <circle cx="82" cy="152" r="6" fill="#f8fafc"/>
  <path d="M40 176 Q66 160 88 176" fill="none" stroke="#0f172a" stroke-width="4" stroke-linecap="round"/>
</svg>
